<svg width="18" height="20" viewBox="0 0 18 20" fill="none" xmlns="http://www.w3.org/2000/svg">
<path id="Vector" d="M15.0494 10.5689C15.0399 8.9302 15.8337 7.69336 17.4405 6.78248C16.5414 5.58137 15.1833 4.92054 13.39 4.79105C11.6923 4.66603 9.83688 5.71533 9.15781 5.71533C8.44049 5.71533 6.79543 4.8357 5.50425 4.8357C2.83581 4.87589 0 6.82267 0 10.7832C0 11.9531 0.229543 13.1616 0.688629 14.4089C1.30074 16.0476 3.5101 20.0661 5.81509 19.9992C7.02019 19.9724 7.87141 19.1999 9.43996 19.1999C10.9607 19.1999 11.7497 19.9992 13.0935 19.9992C15.4176 19.9679 17.4166 16.3155 18 14.6723C14.882 13.3015 15.0494 10.6537 15.0494 10.5689ZM12.3427 3.2372C13.6482 1.7905 13.5287 0.4733 13.4904 0C12.3379 0.0625114 11.0037 0.732276 10.2434 1.55832C9.40648 2.44241 8.91392 3.53636 9.01913 4.76872C10.2673 4.85803 11.4054 4.2597 12.3427 3.2372Z" fill="black"/>
</svg>
