<svg width="30" height="27" viewBox="0 0 30 27" fill="none" xmlns="http://www.w3.org/2000/svg">
<path id="Vector" d="M1.0625 4.78125H28.6875C29.2743 4.78125 29.75 4.30558 29.75 3.71875V1.0625C29.75 0.475668 29.2743 0 28.6875 0H1.0625C0.475668 0 0 0.475668 0 1.0625V3.71875C0 4.30558 0.475668 4.78125 1.0625 4.78125ZM1.0625 15.4062H28.6875C29.2743 15.4062 29.75 14.9306 29.75 14.3438V11.6875C29.75 11.1007 29.2743 10.625 28.6875 10.625H1.0625C0.475668 10.625 0 11.1007 0 11.6875V14.3438C0 14.9306 0.475668 15.4062 1.0625 15.4062ZM1.0625 26.0312H28.6875C29.2743 26.0312 29.75 25.5556 29.75 24.9688V22.3125C29.75 21.7257 29.2743 21.25 28.6875 21.25H1.0625C0.475668 21.25 0 21.7257 0 22.3125V24.9688C0 25.5556 0.475668 26.0312 1.0625 26.0312Z" fill="black"/>
</svg>
