<svg width="30" height="33" fill="none" xmlns="http://www.w3.org/2000/svg">
<rect width="30" height="33"/>
<g id="Tela Loguin">
<rect width="430" height="932" transform="translate(-375 -41)"/>
<path id="Vector" d="M15 33C17.3652 33 19.2837 31.1534 19.2837 28.875H10.7163C10.7163 31.1534 12.6348 33 15 33ZM29.4234 23.3507C28.1297 22.0127 25.7089 19.9998 25.7089 13.4062C25.7089 8.39824 22.0607 4.38926 17.1415 3.4057V2.0625C17.1415 0.923613 16.1826 0 15 0C13.8174 0 12.8585 0.923613 12.8585 2.0625V3.4057C7.93931 4.38926 4.29111 8.39824 4.29111 13.4062C4.29111 19.9998 1.87035 22.0127 0.576607 23.3507C0.174823 23.7664 -0.00330191 24.2634 4.62982e-05 24.75C0.00741235 25.807 0.86924 26.8125 2.14959 26.8125H27.8504C29.1308 26.8125 29.9933 25.807 30 24.75C30.0033 24.2634 29.8252 23.7658 29.4234 23.3507Z" fill="black"/>
</g>
</svg>
