<svg width="35" height="32" viewBox="0 0 35 32" fill="none" xmlns="http://www.w3.org/2000/svg">
<path id="Vector" d="M29.3429 26.95C29.3429 27.4357 29.0634 27.7857 28.6623 27.7857C28.2491 27.7857 27.9818 27.4143 27.9818 26.95C27.9818 26.4857 28.2491 26.1143 28.6623 26.1143C29.0634 26.1143 29.3429 26.4857 29.3429 26.95ZM10.4575 26.1143C10.026 26.1143 9.77691 26.4857 9.77691 26.95C9.77691 27.4143 10.026 27.7857 10.4575 27.7857C10.8524 27.7857 11.1198 27.4357 11.1198 26.95C11.1137 26.4857 10.8524 26.1143 10.4575 26.1143ZM17.5972 26.0929C17.2691 26.0929 17.0686 26.3429 17.02 26.7143H18.1806C18.1259 26.3071 17.9132 26.0929 17.5972 26.0929ZM24.1476 26.1143C23.7344 26.1143 23.4852 26.4857 23.4852 26.95C23.4852 27.4143 23.7344 27.7857 24.1476 27.7857C24.5608 27.7857 24.8281 27.4357 24.8281 26.95C24.8281 26.4857 24.5608 26.1143 24.1476 26.1143ZM30.5825 27.9786C30.5825 28 30.6007 28.0143 30.6007 28.0571C30.6007 28.0786 30.5825 28.0929 30.5825 28.1357C30.5642 28.1571 30.5642 28.1714 30.5521 28.1929C30.5339 28.2143 30.5217 28.2286 30.4852 28.2286C30.467 28.25 30.4549 28.25 30.4184 28.25C30.4002 28.25 30.388 28.25 30.3516 28.2286C30.3333 28.2286 30.3212 28.2071 30.303 28.1929C30.2847 28.1714 30.2726 28.1571 30.2726 28.1357C30.2543 28.1 30.2543 28.0786 30.2543 28.0571C30.2543 28.0214 30.2543 28 30.2726 27.9786C30.2726 27.9429 30.2908 27.9214 30.303 27.9C30.3212 27.8786 30.3333 27.8786 30.3516 27.8643C30.3819 27.8429 30.4002 27.8429 30.4184 27.8429C30.4488 27.8429 30.467 27.8429 30.4852 27.8643C30.5156 27.8857 30.5339 27.8857 30.5521 27.9C30.5703 27.9143 30.5642 27.9429 30.5825 27.9786ZM30.4488 28.0786C30.4792 28.0786 30.4792 28.0571 30.4974 28.0571C30.5156 28.0357 30.5156 28.0214 30.5156 28C30.5156 27.9786 30.5156 27.9643 30.4974 27.9429C30.4792 27.9429 30.467 27.9214 30.4306 27.9214H30.3333V28.1714H30.3819V28.0714H30.4002L30.467 28.1714H30.5156L30.4488 28.0786ZM35 3.42857V28.5714C35 30.4643 33.6936 32 32.0833 32H2.91667C1.30642 32 0 30.4643 0 28.5714V3.42857C0 1.53571 1.30642 0 2.91667 0H32.0833C33.6936 0 35 1.53571 35 3.42857ZM3.88889 13.4C3.88889 18.8643 7.66233 23.2929 12.3047 23.2929C13.9575 23.2929 15.5799 22.7071 16.9531 21.6429C12.5234 17.4071 12.5538 9.41429 16.9531 5.17857C15.5799 4.10714 13.9575 3.52857 12.3047 3.52857C7.66233 3.52143 3.88889 7.95714 3.88889 13.4ZM17.5 21.1714C21.7839 17.2429 21.7656 9.58571 17.5 5.63571C13.2344 9.58571 13.2161 17.25 17.5 21.1714ZM8.8533 26.6214C8.8533 26 8.50694 25.5929 7.96007 25.5714C7.68056 25.5714 7.38281 25.6714 7.18229 26.0357C7.03646 25.7429 6.78733 25.5714 6.44097 25.5714C6.21007 25.5714 5.97917 25.6714 5.79688 25.9571V25.6429H5.29861V28.2643H5.79688C5.79688 26.9143 5.64497 26.1071 6.34375 26.1071C6.96354 26.1071 6.84201 26.8357 6.84201 28.2643H7.32205C7.32205 26.9571 7.17014 26.1071 7.86892 26.1071C8.48872 26.1071 8.36719 26.8214 8.36719 28.2643H8.86545V26.6214H8.8533ZM11.5816 25.6429H11.1016V25.9571C10.9375 25.7214 10.7066 25.5714 10.3906 25.5714C9.76476 25.5714 9.28472 26.1571 9.28472 26.95C9.28472 27.75 9.76476 28.3286 10.3906 28.3286C10.7066 28.3286 10.9375 28.1929 11.1016 27.9429V28.2714H11.5816V25.6429ZM14.0425 27.4714C14.0425 26.4 12.651 26.8857 12.651 26.3857C12.651 25.9786 13.3741 26.0429 13.7752 26.3071L13.9757 25.8429C13.4045 25.4071 12.1406 25.4143 12.1406 26.4286C12.1406 27.45 13.5321 27.0214 13.5321 27.5C13.5321 27.95 12.7118 27.9143 12.2743 27.5571L12.0616 28.0071C12.7422 28.55 14.0425 28.4357 14.0425 27.4714ZM16.1936 28.1357L16.0599 27.65C15.829 27.8 15.3186 27.9643 15.3186 27.3571V26.1714H16.1146V25.6429H15.3186V24.8429H14.8203V25.6429H14.3585V26.1643H14.8203V27.3571C14.8203 28.6143 15.8715 28.3857 16.1936 28.1357ZM17.0017 27.1786H18.6727C18.6727 26.0214 18.2231 25.5643 17.6155 25.5643C16.9714 25.5643 16.5095 26.1286 16.5095 26.9429C16.5095 28.4071 17.8828 28.65 18.5634 27.9571L18.3325 27.5286C17.8585 27.9857 17.1415 27.9429 17.0017 27.1786ZM20.5929 25.6429C20.3134 25.5 19.888 25.5143 19.6693 25.9571V25.6429H19.171V28.2643H19.6693V26.7857C19.6693 25.9571 20.2465 26.0643 20.447 26.1857L20.5929 25.6429ZM21.237 26.95C21.237 26.1357 21.9418 25.8714 22.4948 26.35L22.7257 25.8857C22.0208 25.2357 20.7387 25.5929 20.7387 26.9571C20.7387 28.3714 22.0998 28.6571 22.7257 28.0286L22.4948 27.5643C21.9358 28.0286 21.237 27.75 21.237 26.95ZM25.2899 25.6429H24.7917V25.9571C24.2873 25.1714 22.9748 25.6143 22.9748 26.95C22.9748 28.3214 24.3359 28.7143 24.7917 27.9429V28.2714H25.2899V25.6429ZM27.3377 25.6429C27.1918 25.5571 26.6693 25.4357 26.4141 25.9571V25.6429H25.934V28.2643H26.4141V26.7857C26.4141 26 26.9609 26.05 27.1918 26.1857L27.3377 25.6429ZM29.7865 24.5786H29.3064V25.9571C28.8082 25.1786 27.4896 25.5929 27.4896 26.95C27.4896 28.3357 28.8568 28.7071 29.3064 27.9429V28.2714H29.7865V24.5786ZM30.2483 19.2143V19.5429H30.2969V19.2143H30.4123V19.1571H30.1328V19.2143H30.2483ZM30.6493 28.0571C30.6493 28.0214 30.6493 27.9786 30.6311 27.9429C30.6128 27.9214 30.6007 27.8857 30.5825 27.8643C30.5642 27.8429 30.5339 27.8286 30.5156 27.8071C30.4852 27.8071 30.4488 27.7857 30.4184 27.7857C30.4002 27.7857 30.3698 27.8071 30.3333 27.8071C30.303 27.8286 30.2847 27.8429 30.2665 27.8643C30.2361 27.8857 30.2179 27.9214 30.2179 27.9429C30.1997 27.9786 30.1997 28.0214 30.1997 28.0571C30.1997 28.0786 30.1997 28.1143 30.2179 28.1571C30.2179 28.1786 30.2361 28.2143 30.2665 28.2357C30.2847 28.2571 30.2969 28.2714 30.3333 28.2929C30.3637 28.3143 30.4002 28.3143 30.4184 28.3143C30.4488 28.3143 30.4852 28.3143 30.5156 28.2929C30.5339 28.2714 30.5642 28.2571 30.5825 28.2357C30.6007 28.2143 30.6128 28.1786 30.6311 28.1571C30.6493 28.1143 30.6493 28.0786 30.6493 28.0571ZM30.8437 19.15H30.7587L30.6615 19.4L30.5642 19.15H30.4792V19.5357H30.5278V19.2429L30.625 19.4929H30.6918L30.7769 19.2429V19.5357H30.8437V19.15ZM31.1111 13.4C31.1111 7.95714 27.3377 3.52143 22.6953 3.52143C21.0425 3.52143 19.4201 4.10714 18.0469 5.17143C22.428 9.40714 22.4948 17.4214 18.0469 21.6357C19.4201 22.7071 21.0547 23.2857 22.6953 23.2857C27.3377 23.2929 31.1111 18.8643 31.1111 13.4Z" fill="black"/>
</svg>
