<svg width="38" height="33" viewBox="0 0 38 33" fill="none" xmlns="http://www.w3.org/2000/svg">
<path id="Vector" d="M34.5524 0.5H3.79048C2.09216 0.5 0.714287 2.0302 0.714287 3.91625V28.9687C0.714287 30.8548 2.09216 32.385 3.79048 32.385H34.5524C36.2507 32.385 37.6286 30.8548 37.6286 28.9687V3.91625C37.6286 2.0302 36.2507 0.5 34.5524 0.5ZM11.9937 7.3325C14.2559 7.3325 16.0952 9.37513 16.0952 11.8875C16.0952 14.3999 14.2559 16.4425 11.9937 16.4425C9.73137 16.4425 7.89206 14.3999 7.89206 11.8875C7.89206 9.37513 9.73137 7.3325 11.9937 7.3325ZM19.1714 24.186C19.1714 24.9404 18.5306 25.5525 17.7359 25.5525H6.25143C5.45675 25.5525 4.81587 24.9404 4.81587 24.186V22.8195C4.81587 20.5562 6.7449 18.72 9.12254 18.72H9.44298C10.2313 19.083 11.09 19.2894 11.9937 19.2894C12.8973 19.2894 13.7625 19.083 14.5443 18.72H14.8648C17.2424 18.72 19.1714 20.5562 19.1714 22.8195V24.186ZM33.527 20.4281C33.527 20.7413 33.2963 20.9975 33.0143 20.9975H23.7857C23.5037 20.9975 23.273 20.7413 23.273 20.4281V19.2894C23.273 18.9762 23.5037 18.72 23.7857 18.72H33.0143C33.2963 18.72 33.527 18.9762 33.527 19.2894V20.4281ZM33.527 15.8731C33.527 16.1863 33.2963 16.4425 33.0143 16.4425H23.7857C23.5037 16.4425 23.273 16.1863 23.273 15.8731V14.7344C23.273 14.4212 23.5037 14.165 23.7857 14.165H33.0143C33.2963 14.165 33.527 14.4212 33.527 14.7344V15.8731ZM33.527 11.3181C33.527 11.6313 33.2963 11.8875 33.0143 11.8875H23.7857C23.5037 11.8875 23.273 11.6313 23.273 11.3181V10.1794C23.273 9.86622 23.5037 9.61 23.7857 9.61H33.0143C33.2963 9.61 33.527 9.86622 33.527 10.1794V11.3181Z" fill="black"/>
</svg>
