<svg width="35" height="35" viewBox="0 0 35 35" fill="none" xmlns="http://www.w3.org/2000/svg">
<g id="exchange-alt">
<path id="Vector" d="M0 11.4844V10.3906C0 9.48452 0.734521 8.75 1.64062 8.75H26.25V5.46875C26.25 4.00812 28.0204 3.27838 29.0508 4.30863L34.5195 9.77738C35.1602 10.4181 35.1602 11.4569 34.5195 12.0976L29.0508 17.5663C28.0243 18.5925 26.25 17.873 26.25 16.4063V13.125H1.64062C0.734521 13.125 0 12.3905 0 11.4844ZM33.3594 21.875H8.75V18.5938C8.75 17.1367 6.98209 16.4008 5.94925 17.4336L0.480498 22.9024C-0.160166 23.5431 -0.160166 24.5819 0.480498 25.2226L5.94925 30.6913C6.97655 31.7185 8.75 30.9967 8.75 29.5313V26.25H33.3594C34.2655 26.25 35 25.5155 35 24.6094V23.5156C35 22.6095 34.2655 21.875 33.3594 21.875Z" fill="black"/>
</g>
</svg>
