<svg width="35" height="35" viewBox="0 0 35 35" fill="none" xmlns="http://www.w3.org/2000/svg">
<g id="receipt" clip-path="url(#clip0_1_188)">
<path id="Vector" d="M28.875 0.21875L26.25 3.28125L22.5313 0.21875C22.3424 0.0756955 22.1119 -0.00172457 21.875 -0.00172457C21.6381 -0.00172457 21.4076 0.0756955 21.2187 0.21875L17.5 3.28125L13.7813 0.21875C13.5924 0.0756955 13.3619 -0.00172457 13.125 -0.00172457C12.8881 -0.00172457 12.6576 0.0756955 12.4688 0.21875L8.75 3.28125L6.125 0.21875C5.40039 -0.321289 4.375 0.191406 4.375 1.09375V33.9063C4.375 34.8086 5.40039 35.3213 6.125 34.7812L8.75 31.7188L12.4688 34.7812C12.6576 34.9243 12.8881 35.0017 13.125 35.0017C13.3619 35.0017 13.5924 34.9243 13.7813 34.7812L17.5 31.7188L21.2187 34.7812C21.4076 34.9243 21.6381 35.0017 21.875 35.0017C22.1119 35.0017 22.3424 34.9243 22.5313 34.7812L26.25 31.7188L28.875 34.7812C29.5928 35.3213 30.625 34.8086 30.625 33.9063V1.09375C30.625 0.191406 29.5996 -0.321289 28.875 0.21875ZM26.25 24.6094C26.25 24.9102 26.0039 25.1563 25.7031 25.1563H9.29688C8.99609 25.1563 8.75 24.9102 8.75 24.6094V23.5156C8.75 23.2148 8.99609 22.9688 9.29688 22.9688H25.7031C26.0039 22.9688 26.25 23.2148 26.25 23.5156V24.6094ZM26.25 18.0469C26.25 18.3477 26.0039 18.5938 25.7031 18.5938H9.29688C8.99609 18.5938 8.75 18.3477 8.75 18.0469V16.9531C8.75 16.6523 8.99609 16.4062 9.29688 16.4062H25.7031C26.0039 16.4062 26.25 16.6523 26.25 16.9531V18.0469ZM26.25 11.4844C26.25 11.7852 26.0039 12.0312 25.7031 12.0312H9.29688C8.99609 12.0312 8.75 11.7852 8.75 11.4844V10.3906C8.75 10.0898 8.99609 9.84375 9.29688 9.84375H25.7031C26.0039 9.84375 26.25 10.0898 26.25 10.3906V11.4844Z" fill="black"/>
</g>
<defs>
<clipPath id="clip0_1_188">
<rect width="35" height="35" fill="white"/>
</clipPath>
</defs>
</svg>
