<svg width="26" height="18" viewBox="0 0 26 18" fill="none" xmlns="http://www.w3.org/2000/svg">
<path id="Vector" d="M15.7956 7.71075C15.8732 8.16506 15.9286 8.61937 15.9286 9.20869C15.9286 14.3534 12.8138 18 8.125 18C3.63577 18 0 13.9727 0 9C0 4.02727 3.63577 0 8.125 0C10.3198 0 12.1487 0.884016 13.5675 2.35744L11.3617 4.70259C10.7631 4.06411 9.71009 3.31514 8.125 3.31514C5.35387 3.31514 3.09258 5.85675 3.09258 9C3.09258 12.1432 5.35387 14.6849 8.125 14.6849C11.3395 14.6849 12.5478 12.1187 12.7361 10.8049H8.125V7.7107H15.7956V7.71075ZM23.6415 8.01248V5.4H21.2717V8.01248H18.9132V10.6375H21.2717V13.25H23.6415V10.6375H26V8.01248H23.6415Z" fill="black"/>
</svg>
