<svg width="38" height="32" viewBox="0 0 38 32" fill="none" xmlns="http://www.w3.org/2000/svg">
<path id="Vector" d="M18.8534 8.67193L7.03858 19.3501V30.8749C7.03858 31.1733 7.1466 31.4595 7.33889 31.6705C7.53117 31.8815 7.79197 32 8.0639 32L15.245 31.9796C15.516 31.9781 15.7755 31.8589 15.9667 31.6481C16.1578 31.4372 16.2652 31.1519 16.2652 30.8545V24.1241C16.2652 23.8257 16.3732 23.5395 16.5655 23.3285C16.7578 23.1175 17.0185 22.999 17.2905 22.999H21.3917C21.6637 22.999 21.9245 23.1175 22.1168 23.3285C22.309 23.5395 22.4171 23.8257 22.4171 24.1241V30.8496C22.4166 30.9976 22.4429 31.1443 22.4942 31.2812C22.5455 31.4181 22.621 31.5426 22.7162 31.6474C22.8115 31.7523 22.9247 31.8355 23.0493 31.8922C23.1739 31.949 23.3075 31.9782 23.4424 31.9782L30.6209 32C30.8928 32 31.1536 31.8815 31.3459 31.6705C31.5382 31.4595 31.6462 31.1733 31.6462 30.8749V19.3423L19.8339 8.67193C19.695 8.54909 19.522 8.48211 19.3437 8.48211C19.1653 8.48211 18.9923 8.54909 18.8534 8.67193ZM37.5162 15.9297L32.1589 11.0839V1.34384C32.1589 1.12004 32.0779 0.905408 31.9336 0.747156C31.7894 0.588905 31.5938 0.5 31.3899 0.5H27.8013C27.5973 0.5 27.4017 0.588905 27.2575 0.747156C27.1133 0.905408 27.0323 1.12004 27.0323 1.34384V6.4498L21.295 1.27001C20.7444 0.772828 20.0535 0.500994 19.3405 0.500994C18.6274 0.500994 17.9365 0.772828 17.386 1.27001L1.16479 15.9297C1.08692 16.0003 1.0225 16.0871 0.9752 16.185C0.927902 16.283 0.898657 16.3902 0.889135 16.5006C0.879613 16.6109 0.890002 16.7223 0.919707 16.8282C0.949412 16.9342 0.997852 17.0327 1.06226 17.1181L2.69636 19.298C2.76059 19.3837 2.83959 19.4547 2.92885 19.5069C3.0181 19.559 3.11585 19.5913 3.21651 19.602C3.31716 19.6126 3.41874 19.6014 3.51543 19.5689C3.61212 19.5364 3.70202 19.4833 3.77999 19.4127L18.8534 5.78879C18.9923 5.66596 19.1653 5.59898 19.3437 5.59898C19.522 5.59898 19.695 5.66596 19.8339 5.78879L34.908 19.4127C34.9858 19.4833 35.0756 19.5365 35.1721 19.5691C35.2687 19.6017 35.3702 19.6131 35.4707 19.6026C35.5713 19.5922 35.669 19.5601 35.7583 19.5082C35.8476 19.4563 35.9266 19.3856 35.991 19.3001L37.6251 17.1202C37.6894 17.0343 37.7377 16.9353 37.767 16.8289C37.7964 16.7225 37.8063 16.6107 37.7962 16.5001C37.786 16.3895 37.7561 16.2821 37.708 16.1842C37.66 16.0863 37.5948 15.9998 37.5162 15.9297Z" fill="black"/>
</svg>
