<svg width="25" height="20" viewBox="0 0 25 20" fill="none" xmlns="http://www.w3.org/2000/svg">
<path id="Vector" d="M24.375 8.125H21.875V5.625C21.875 5.28125 21.5938 5 21.25 5H20C19.6562 5 19.375 5.28125 19.375 5.625V8.125H16.875C16.5312 8.125 16.25 8.40625 16.25 8.75V10C16.25 10.3438 16.5312 10.625 16.875 10.625H19.375V13.125C19.375 13.4688 19.6562 13.75 20 13.75H21.25C21.5938 13.75 21.875 13.4688 21.875 13.125V10.625H24.375C24.7188 10.625 25 10.3438 25 10V8.75C25 8.40625 24.7188 8.125 24.375 8.125ZM8.75 10C11.5117 10 13.75 7.76172 13.75 5C13.75 2.23828 11.5117 0 8.75 0C5.98828 0 3.75 2.23828 3.75 5C3.75 7.76172 5.98828 10 8.75 10ZM12.25 11.25H11.5977C10.7305 11.6484 9.76562 11.875 8.75 11.875C7.73438 11.875 6.77344 11.6484 5.90234 11.25H5.25C2.35156 11.25 0 13.6016 0 16.5V18.125C0 19.1602 0.839844 20 1.875 20H15.625C16.6602 20 17.5 19.1602 17.5 18.125V16.5C17.5 13.6016 15.1484 11.25 12.25 11.25Z" fill="black"/>
</svg>
