<svg width="38" height="32" viewBox="0 0 38 32" fill="none" xmlns="http://www.w3.org/2000/svg">
<path id="Vector" d="M36.3036 26.75H5.15715V1.8125C5.15715 1.08734 4.64092 0.5 4.00358 0.5H1.69643C1.05909 0.5 0.542862 1.08734 0.542862 1.8125V29.375C0.542862 30.8245 1.57603 32 2.85 32H36.3036C36.9409 32 37.4571 31.4127 37.4571 30.6875V28.0625C37.4571 27.3373 36.9409 26.75 36.3036 26.75ZM33.9964 3.125H25.4845C23.9431 3.125 23.1709 5.24551 24.261 6.48582L26.597 9.14363L21.3071 15.1631L16.0173 9.14445C15.1161 8.11906 13.6554 8.11906 12.7549 9.14445L7.80243 14.7792C7.35182 15.2919 7.35182 16.1229 7.80243 16.6355L9.43329 18.4911C9.88391 19.0038 10.6143 19.0038 11.0649 18.4911L14.3857 14.7119L19.6756 20.7305C20.5768 21.7559 22.0375 21.7559 22.938 20.7305L29.8594 12.8555L32.1954 15.5134C33.2855 16.7537 35.1493 15.8751 35.1493 14.1213V4.4375C35.15 3.71234 34.6338 3.125 33.9964 3.125Z" fill="black"/>
</svg>
