<svg width="24" height="27" viewBox="0 0 24 27" fill="none" xmlns="http://www.w3.org/2000/svg">
<path id="Vector" d="M23.2404 8.4375C23.5922 8.4375 23.88 8.15273 23.88 7.80469V5.69531C23.88 5.34727 23.5922 5.0625 23.2404 5.0625H22.1743V2.53125C22.1743 1.13379 21.0283 0 19.6157 0H2.55857C1.14603 0 0 1.13379 0 2.53125V24.4688C0 25.8662 1.14603 27 2.55857 27H19.6157C21.0283 27 22.1743 25.8662 22.1743 24.4688V21.9375H23.2404C23.5922 21.9375 23.88 21.6527 23.88 21.3047V19.1953C23.88 18.8473 23.5922 18.5625 23.2404 18.5625H22.1743V15.1875H23.2404C23.5922 15.1875 23.88 14.9027 23.88 14.5547V12.4453C23.88 12.0973 23.5922 11.8125 23.2404 11.8125H22.1743V8.4375H23.2404ZM11.0871 6.75C12.9688 6.75 14.4986 8.26348 14.4986 10.125C14.4986 11.9865 12.9688 13.5 11.0871 13.5C9.20553 13.5 7.67571 11.9865 7.67571 10.125C7.67571 8.26348 9.20553 6.75 11.0871 6.75ZM17.0571 19.2375C17.0571 19.7965 16.5241 20.25 15.8631 20.25H6.31114C5.65018 20.25 5.11714 19.7965 5.11714 19.2375V18.225C5.11714 16.548 6.72158 15.1875 8.69914 15.1875H8.96566C9.62129 15.4564 10.3356 15.6094 11.0871 15.6094C11.8387 15.6094 12.5583 15.4564 13.2086 15.1875H13.4751C15.4527 15.1875 17.0571 16.548 17.0571 18.225V19.2375Z" fill="black"/>
</svg>
