<svg width="36" height="31" viewBox="0 0 36 31" fill="none" xmlns="http://www.w3.org/2000/svg">
<path id="Vector" d="M1.62041 5.96429H34.0939C34.7837 5.96429 35.3429 5.42067 35.3429 4.75V1.71429C35.3429 1.04362 34.7837 0.5 34.0939 0.5H1.62041C0.930582 0.5 0.371429 1.04362 0.371429 1.71429V4.75C0.371429 5.42067 0.930582 5.96429 1.62041 5.96429ZM1.62041 18.1071H34.0939C34.7837 18.1071 35.3429 17.5635 35.3429 16.8929V13.8571C35.3429 13.1865 34.7837 12.6429 34.0939 12.6429H1.62041C0.930582 12.6429 0.371429 13.1865 0.371429 13.8571V16.8929C0.371429 17.5635 0.930582 18.1071 1.62041 18.1071ZM1.62041 30.25H34.0939C34.7837 30.25 35.3429 29.7064 35.3429 29.0357V26C35.3429 25.3293 34.7837 24.7857 34.0939 24.7857H1.62041C0.930582 24.7857 0.371429 25.3293 0.371429 26V29.0357C0.371429 29.7064 0.930582 30.25 1.62041 30.25Z" fill="black"/>
</svg>
